<svg width="5382" height="5382" viewBox="0 0 5382 5382" fill="none" xmlns="http://www.w3.org/2000/svg">
<g clip-path="url(#clip0_44_266)">
<rect width="5382" height="5382" fill="#FFFAAC"/>
<path d="M1963.53 1552.85L1458.01 4842.66C1455.23 4860.75 1442.7 4876.63 1424.59 4879.24C918.339 4952.33 9.65985 2378.14 599.315 1225.63C1075.59 294.725 1698.81 1027.25 1958.62 1522.59C1963.52 1531.94 1965.14 1542.41 1963.53 1552.85Z" fill="url(#paint0_linear_44_266)" fill-opacity="0.9"/>
<path d="M4429.27 4876.12L1383.47 4876.12C1363.47 4876.12 1344.97 4864.47 1339.84 4845.13C1179.47 4240.29 3353.65 2626.8 4500.54 3191.25C5423.51 3645.5 4868.04 4486.42 4462.67 4863.21C4453.54 4871.69 4441.73 4876.12 4429.27 4876.12Z" fill="url(#paint1_linear_44_266)" fill-opacity="0.9"/>
<path d="M4432 816.004H1382C1354.39 816.004 1332 838.39 1332 866.004V4830C1332 4857.62 1354.39 4880 1382 4880H4432C4459.61 4880 4482 4857.62 4482 4830V866.004C4482 838.39 4459.61 816.004 4432 816.004Z" fill="#FEFEF7"/>
<g filter="url(#filter0_d_44_266)">
<path d="M245 4407L1277.28 3775.4C1291.48 3766.71 1309.08 3765.66 1324.21 3772.6L2009.82 4086.84C2035.21 4098.47 2065.2 4087.06 2076.43 4061.5L2502.78 3091.16C2514.12 3065.35 2544.56 3054.01 2570.02 3066.12L3002.54 3271.72C3024.71 3282.26 3051.24 3275.15 3065.17 3254.95L3699.75 2334.58C3714.56 2313.09 3743.42 2306.61 3766 2319.72L3967.6 2436.7C3996.35 2453.38 4033.08 2437.88 4041.19 2405.65L4225.49 1672.81C4231.08 1650.58 4251.07 1635 4273.98 1635H4432.5" stroke="#FF8484" stroke-width="100" stroke-linecap="square"/>
</g>
<path d="M1628.23 1986C1606.11 1986 1598.89 1975.86 1606.57 1955.59L1832.4 1362.42C1841.93 1337.53 1856.37 1325.09 1875.73 1325.09H1940.25C1959.61 1325.09 1974.05 1337.53 1983.58 1362.42L2209.41 1955.59C2217.09 1975.86 2209.87 1986 2187.75 1986H2114.47C2094.19 1986 2080.06 1975.4 2072.07 1954.2L2025.06 1830.22H1790.92L1743.91 1954.2C1735.92 1975.4 1721.79 1986 1701.51 1986H1628.23ZM1833.79 1715.92H1982.19L1925.5 1569.36C1918.74 1552.15 1914.6 1539.71 1913.06 1532.03C1911.83 1524.04 1910.45 1512.36 1908.91 1497H1907.07C1905.53 1512.36 1904 1524.04 1902.46 1532.03C1901.23 1539.71 1897.24 1552.15 1890.48 1569.36L1833.79 1715.92ZM2323.71 1986C2302.21 1986 2291.45 1974.48 2291.45 1951.44V1359.65C2291.45 1336.61 2302.21 1325.09 2323.71 1325.09H2393.77C2415.28 1325.09 2426.03 1336.61 2426.03 1359.65V1951.44C2426.03 1974.48 2415.28 1986 2393.77 1986H2323.71Z" fill="#FF8484"/>
<path d="M3640.6 1947.13L3480.38 1947.13C3452.76 1947.13 3430.38 1924.75 3430.38 1897.13L3430.38 755.404C3430.38 727.79 3407.99 705.404 3380.38 705.404L3205.64 705.404C3166.4 705.404 3142.46 662.27 3163.21 628.965L3513.28 67.0487C3532.69 35.8968 3577.93 35.5748 3597.78 66.4471L3959.06 628.364C3980.45 661.639 3956.56 705.404 3917 705.404L3740.6 705.404C3712.99 705.404 3690.6 727.79 3690.6 755.404L3690.6 1897.13C3690.6 1924.75 3668.22 1947.13 3640.6 1947.13Z" fill="#97ECB7"/>
<path d="M4263.16 1331.43L4215.26 1331.05C4187.96 1330.83 4165.88 1308.75 4165.66 1281.45L4160.8 677.584C4160.58 650.284 4138.51 628.206 4111.21 627.988L4070.56 627.663C4031.53 627.35 4007.89 584.435 4028.49 551.28L4186.58 296.787C4205.9 265.688 4250.99 265.213 4270.96 295.896L4438.29 552.993C4460.03 586.406 4435.85 630.585 4395.98 630.266L4359.13 629.971C4331.2 629.748 4308.5 652.444 4308.73 680.371L4313.56 1281.03C4313.78 1308.96 4291.09 1331.65 4263.16 1331.43Z" fill="#C7AAE8"/>
</g>
<defs>
<filter id="filter0_d_44_266" x="-23.7461" y="1385" width="4706.25" height="3290.75" filterUnits="userSpaceOnUse" color-interpolation-filters="sRGB">
<feFlood flood-opacity="0" result="BackgroundImageFix"/>
<feColorMatrix in="SourceAlpha" type="matrix" values="0 0 0 0 0 0 0 0 0 0 0 0 0 0 0 0 0 0 127 0" result="hardAlpha"/>
<feOffset/>
<feGaussianBlur stdDeviation="100"/>
<feComposite in2="hardAlpha" operator="out"/>
<feColorMatrix type="matrix" values="0 0 0 0 1 0 0 0 0 0.709804 0 0 0 0 0.709804 0 0 0 1 0"/>
<feBlend mode="normal" in2="BackgroundImageFix" result="effect1_dropShadow_44_266"/>
<feBlend mode="normal" in="SourceGraphic" in2="effect1_dropShadow_44_266" result="shape"/>
</filter>
<linearGradient id="paint0_linear_44_266" x1="1070.17" y1="1459.64" x2="5620.83" y2="2554.35" gradientUnits="userSpaceOnUse">
<stop stop-color="#FFFAAC"/>
<stop offset="1" stop-color="#8B874D"/>
</linearGradient>
<linearGradient id="paint1_linear_44_266" x1="4367.63" y1="3787.84" x2="3424.98" y2="9282.44" gradientUnits="userSpaceOnUse">
<stop stop-color="#FFFAAC"/>
<stop offset="1" stop-color="#8B874D"/>
</linearGradient>
<clipPath id="clip0_44_266">
<rect width="5382" height="5382" fill="white"/>
</clipPath>
</defs>
</svg>
