<svg width="14314" height="7638" viewBox="0 0 14314 7638" fill="none" xmlns="http://www.w3.org/2000/svg">
<g clip-path="url(#clip0_44_220)">
<rect width="14314" height="7638" fill="white"/>
<circle cx="1863" cy="2784" r="475" fill="#A1CBE9" fill-opacity="0.3"/>
<circle cx="4896" cy="5393" r="1051" fill="#FFFBB3" fill-opacity="0.4"/>
<ellipse cx="9803.13" cy="3110.55" rx="770.95" ry="756.041" transform="rotate(1.24007 9803.13 3110.55)" fill="#FFB5B5" fill-opacity="0.3"/>
<ellipse cx="13369.5" cy="5913.27" rx="855.494" ry="838.95" transform="rotate(1.24007 13369.5 5913.27)" fill="#BCA1DB" fill-opacity="0.4"/>
<g filter="url(#filter0_d_44_220)">
<circle cx="1571" cy="2619" r="475" fill="#A0D8FF"/>
</g>
<circle cx="4177" cy="5168" r="1063" fill="#FFFAA3"/>
<circle cx="12720" cy="5627" r="997" fill="#C7AAE8"/>
<path d="M3094.31 4950.96C3294.23 4834.16 3843.5 4810.99 3843.5 5689.5C3843.5 6213.52 2996.54 6191.63 2573.24 6318.43C2472.5 6567.04 2386.29 6711.01 2347 6577C2306.94 6440.37 2407.69 6368.03 2573.24 6318.43C2760.9 5855.28 2998.98 5028.97 3077.97 4960.43C3082.91 4956.14 3088.67 4954.26 3094.31 4950.96Z" fill="url(#paint0_linear_44_220)"/>
<circle cx="10171" cy="3094" r="756" fill="#FFB5B5"/>
<path d="M3052.8 6721.48C3762.5 6353.15 3812.9 5498.24 3743.71 5067.09C3738.73 5036.05 3713.92 5012.56 3682.87 5007.65L2553.08 4828.79C2503.16 4820.88 2459.89 4863.76 2464.49 4914.09C2533.78 5672.22 2120.63 6208.83 1781.16 6481.29C1722.84 6528.1 1750.21 6636.92 1824.79 6642.38L3013.71 6729.42C3027.15 6730.4 3040.84 6727.69 3052.8 6721.48Z" fill="#F1F1F1"/>
<path d="M5537.73 782.732C5014.9 1646.09 5532.97 2599.13 5889.19 3008.14C5909.84 3031.84 5943.39 3039.05 5972.42 3026.99L7326.55 2464.49C7373.22 2445.1 7387.63 2385.89 7356.94 2345.74C6748.14 1549.1 6868.06 661.099 7066.98 152.685C7094.22 83.0452 7015.7 5.60313 6949.28 39.9786L5566.92 755.515C5554.95 761.711 5544.71 771.203 5537.73 782.732Z" fill="#F1F1F1"/>
<path d="M13230.5 5261.5C13309.4 4606.66 12945.9 4641.41 12785.7 4695.23C12783.2 4696.09 12781.3 4696.46 12778.8 4697.36C12658.7 4739.79 11729 6060.94 12043 6317.5C12360 6576.5 13143.3 5985.23 13230.5 5261.5Z" fill="url(#paint1_linear_44_220)"/>
<path d="M11857.5 4582.43C11143.2 4948.38 10923.4 5706.83 10978.9 6130.91C10983 6162.08 11008 6185.62 11039 6190.54L12168.8 6369.4C12218.7 6377.3 12262 6334.42 12257.4 6284.09C12190.2 5548.37 12577.3 5021.27 12910.5 4741.74C12970 4691.83 12934.9 4574.38 12857.3 4574.38L11891.1 4574.39C11879.5 4574.39 11867.9 4577.13 11857.5 4582.43Z" fill="#F1F1F1"/>
<path d="M12594.6 2868.86C12886 2293.97 12544.5 1628.93 12306.9 1326.52C12286.8 1300.89 12252.1 1292.85 12222 1305.35L11434.7 1632.4C11389.1 1651.35 11374.1 1708.59 11402.2 1749.17C11775.4 2286.87 11753.8 2856.28 11659 3207.78C11640.1 3277.93 11719.9 3349.98 11784 3315.79L12563.9 2899.92C12577 2892.93 12587.9 2882.11 12594.6 2868.86Z" fill="#F1F1F1"/>
<rect x="5645.06" y="981.848" width="1120" height="95" rx="47.5" transform="rotate(-24.7618 5645.06 981.848)" fill="#D9D9D9"/>
<rect x="11759.8" y="4722.66" width="878.223" height="84.7589" rx="42.3794" transform="rotate(3.4089 11759.8 4722.66)" fill="#D9D9D9"/>
<rect x="11619" y="4892" width="878.223" height="84.7589" rx="42.3794" transform="rotate(3.4089 11619 4892)" fill="#D9D9D9"/>
<rect x="11434" y="5093" width="878.223" height="84.7589" rx="42.3794" transform="rotate(3.4089 11434 5093)" fill="#D9D9D9"/>
<rect x="5636.1" y="1202.47" width="1120" height="95" rx="47.5" transform="rotate(-21.8979 5636.1 1202.47)" fill="#D9D9D9"/>
<rect x="2562.8" y="5133" width="1120" height="95" rx="47.5" transform="rotate(6.52875 2562.8 5133)" fill="#D9D9D9"/>
<rect x="2551.65" y="5393" width="1091.39" height="95" rx="47.5" transform="rotate(7.04451 2551.65 5393)" fill="#D9D9D9"/>
</g>
<defs>
<filter id="filter0_d_44_220" x="1092" y="2144" width="958" height="958" filterUnits="userSpaceOnUse" color-interpolation-filters="sRGB">
<feFlood flood-opacity="0" result="BackgroundImageFix"/>
<feColorMatrix in="SourceAlpha" type="matrix" values="0 0 0 0 0 0 0 0 0 0 0 0 0 0 0 0 0 0 127 0" result="hardAlpha"/>
<feOffset dy="4"/>
<feGaussianBlur stdDeviation="2"/>
<feComposite in2="hardAlpha" operator="out"/>
<feColorMatrix type="matrix" values="0 0 0 0 0 0 0 0 0 0 0 0 0 0 0 0 0 0 0.25 0"/>
<feBlend mode="normal" in2="BackgroundImageFix" result="effect1_dropShadow_44_220"/>
<feBlend mode="normal" in="SourceGraphic" in2="effect1_dropShadow_44_220" result="shape"/>
</filter>
<linearGradient id="paint0_linear_44_220" x1="3713.5" y1="5017.5" x2="2176.5" y2="6063" gradientUnits="userSpaceOnUse">
<stop stop-color="#FFFAA3"/>
<stop offset="1" stop-color="#CDC879"/>
</linearGradient>
<linearGradient id="paint1_linear_44_220" x1="12871.5" y1="5641.5" x2="11161" y2="4678" gradientUnits="userSpaceOnUse">
<stop stop-color="#C7AAE8"/>
<stop offset="1" stop-color="#705F82"/>
</linearGradient>
<clipPath id="clip0_44_220">
<rect width="14314" height="7638" fill="white"/>
</clipPath>
</defs>
</svg>
