<svg width="14314" height="7638" viewBox="0 0 14314 7638" fill="none" xmlns="http://www.w3.org/2000/svg">
<g clip-path="url(#clip0_56_137)">
<rect width="14314" height="7638" fill="white"/>
<circle cx="1141" cy="1430" r="475" fill="#A1CBE9" fill-opacity="0.3"/>
<circle cx="3183" cy="5396" r="1051" fill="#FFFBB3" fill-opacity="0.4"/>
<ellipse cx="12766.1" cy="1341.55" rx="770.95" ry="756.041" transform="rotate(1.24007 12766.1 1341.55)" fill="#FFB5B5" fill-opacity="0.3"/>
<ellipse cx="13369.5" cy="5913.27" rx="855.494" ry="838.95" transform="rotate(1.24007 13369.5 5913.27)" fill="#BCA1DB" fill-opacity="0.4"/>
<circle cx="849" cy="1265" r="475" fill="#A0D8FF"/>
<circle cx="2464" cy="5171" r="1063" fill="#FFFAA3"/>
<circle cx="12720" cy="5627" r="997" fill="#C7AAE8"/>
<path d="M1381.31 4953.96C1581.23 4837.16 2130.5 4813.99 2130.5 5692.5C2130.5 6216.52 1283.54 6194.63 860.236 6321.43C759.503 6570.04 673.292 6714.01 634 6580C593.937 6443.37 694.686 6371.03 860.236 6321.43C1047.9 5858.28 1285.98 5031.97 1364.97 4963.43C1369.91 4959.14 1375.67 4957.26 1381.31 4953.96Z" fill="url(#paint0_linear_56_137)"/>
<circle cx="13134" cy="1325" r="756" fill="#FFB5B5"/>
<path d="M1339.8 6724.48C2049.5 6356.15 2099.9 5501.24 2030.71 5070.09C2025.73 5039.05 2000.92 5015.56 1969.87 5010.65L840.079 4831.79C790.161 4823.88 746.891 4866.76 751.491 4917.09C820.781 5675.22 407.634 6211.83 68.1583 6484.29C9.83877 6531.1 37.2127 6639.92 111.793 6645.38L1300.71 6732.42C1314.15 6733.4 1327.84 6730.69 1339.8 6724.48Z" fill="#F1F1F1"/>
<path d="M1961.61 728.889C1525.33 1453.16 1954.63 2251.44 2254.92 2599.7C2275.44 2623.5 2308.89 2630.56 2337.92 2618.5L3459.49 2152.61C3506.16 2133.22 3520.63 2074.08 3490.26 2033.69C3001.09 1383.05 3082.67 662.754 3240.86 230.983C3266.59 160.767 3186.76 82.6034 3120.35 116.979L1990.77 701.668C1978.8 707.864 1968.56 717.343 1961.61 728.889Z" fill="#F1F1F1"/>
<path d="M13230.5 5261.5C13309.4 4606.66 12945.9 4641.41 12785.7 4695.23C12783.2 4696.09 12781.3 4696.46 12778.8 4697.36C12658.7 4739.79 11729 6060.94 12043 6317.5C12360 6576.5 13143.3 5985.23 13230.5 5261.5Z" fill="url(#paint1_linear_56_137)"/>
<path d="M11857.5 4582.42C11143.2 4948.37 10923.4 5706.83 10978.9 6130.91C10983 6162.08 11008 6185.62 11039 6190.54L12168.8 6369.4C12218.7 6377.3 12262 6334.42 12257.4 6284.09C12190.2 5548.37 12577.3 5021.27 12910.5 4741.74C12970 4691.82 12934.9 4574.38 12857.3 4574.38L11891.1 4574.38C11879.5 4574.38 11867.9 4577.12 11857.5 4582.42Z" fill="#F1F1F1"/>
<path d="M10268.6 7013.86C10560 6438.97 10218.5 5773.93 9980.94 5471.52C9960.8 5445.89 9926.12 5437.85 9896.02 5450.35L9108.7 5777.4C9063.08 5796.35 9048.06 5853.59 9076.23 5894.17C9449.39 6431.87 9427.75 7001.28 9332.97 7352.78C9314.06 7422.93 9393.91 7494.98 9458.03 7460.79L10237.9 7044.92C10251 7037.93 10261.9 7027.11 10268.6 7013.86Z" fill="#F1F1F1"/>
<rect x="2053.93" y="894.299" width="945.948" height="80.2367" rx="40.1183" transform="rotate(-24.7618 2053.93 894.299)" fill="#D9D9D9"/>
<rect x="11759.8" y="4722.66" width="878.223" height="84.7589" rx="42.3794" transform="rotate(3.4089 11759.8 4722.66)" fill="#D9D9D9"/>
<rect x="11619" y="4892" width="878.223" height="84.7589" rx="42.3794" transform="rotate(3.4089 11619 4892)" fill="#D9D9D9"/>
<rect x="11434" y="5093" width="878.223" height="84.7589" rx="42.3794" transform="rotate(3.4089 11434 5093)" fill="#D9D9D9"/>
<rect x="2046.35" y="1080.63" width="945.948" height="80.2367" rx="40.1183" transform="rotate(-21.8979 2046.35 1080.63)" fill="#D9D9D9"/>
<rect x="849.801" y="5136" width="1120" height="95" rx="47.5" transform="rotate(6.52875 849.801 5136)" fill="#D9D9D9"/>
<rect x="838.652" y="5396" width="1091.39" height="95" rx="47.5" transform="rotate(7.04451 838.652 5396)" fill="#D9D9D9"/>
</g>
<defs>
<linearGradient id="paint0_linear_56_137" x1="2000.5" y1="5020.5" x2="463.501" y2="6066" gradientUnits="userSpaceOnUse">
<stop stop-color="#FFFAA3"/>
<stop offset="1" stop-color="#CDC879"/>
</linearGradient>
<linearGradient id="paint1_linear_56_137" x1="12871.5" y1="5641.5" x2="11161" y2="4678" gradientUnits="userSpaceOnUse">
<stop stop-color="#C7AAE8"/>
<stop offset="1" stop-color="#705F82"/>
</linearGradient>
<clipPath id="clip0_56_137">
<rect width="14314" height="7638" fill="white"/>
</clipPath>
</defs>
</svg>
