<svg width="5382" height="5382" viewBox="0 0 5382 5382" fill="none" xmlns="http://www.w3.org/2000/svg">
<g clip-path="url(#clip0_39_97)">
<rect width="5382" height="5382" fill="#FFB5B5"/>
<path d="M1570.3 4792C1529.93 4235.18 791.309 3800.39 374.568 3628.85C342.132 3615.5 304.033 3633.73 300.766 3668.65C291.817 3764.32 357.547 3837.6 696.947 3985.5C914.947 4080.5 999.303 4168 1273.3 4495.5C1460.03 4718.68 1320.91 4812.34 1206.57 4885.26C1176.53 4904.42 1171.72 4945.67 1201.4 4965.38C1350.1 5064.12 1586.28 5012.32 1570.3 4792Z" fill="#FFFBB3"/>
<path d="M949.223 4000.22L904.038 3914.67C898.472 3904.13 889.894 3895.49 879.397 3889.84L611.491 3745.79C579.311 3728.49 539.269 3743.72 526.724 3778.04L507.868 3829.62C497.616 3857.67 509.548 3888.98 535.864 3903.1L867.81 4081.12C920 4109.11 976.879 4052.59 949.223 4000.22Z" fill="url(#paint0_linear_39_97)"/>
<path d="M1355.7 4455.19L1334.28 4549.69C1331.88 4560.27 1332.39 4571.29 1335.76 4581.6L1372.87 4695.19C1386.11 4735.69 1436.14 4749.88 1468.66 4722.36L1516.94 4681.52C1536.39 4665.05 1543.33 4638.09 1534.22 4614.28L1470.26 4447.02C1449.06 4391.58 1368.83 4397.3 1355.7 4455.19Z" fill="url(#paint1_linear_39_97)"/>
<path d="M827.822 4517.53V2091.48C827.822 2059.53 853.721 2033.63 885.668 2033.63H4418.88C4450.83 2033.63 4476.73 2059.53 4476.73 2091.48V4517.53C4476.73 4549.47 4450.83 4575.37 4418.88 4575.37H885.668C853.721 4575.37 827.822 4549.47 827.822 4517.53Z" fill="#FFFBB3"/>
<path d="M2594.44 3203.66L865.428 2071.88C848.114 2060.55 856.139 2033.63 876.834 2033.63H4426.56C4447.4 2033.63 4455.32 2060.85 4437.74 2072.03L2657.16 3204.08C2637.99 3216.27 2613.45 3216.1 2594.44 3203.66Z" fill="#FFFBB3"/>
<path d="M2601.37 807.305L830.714 2059.09L2671.36 2265.6L4465.16 2055.62L2601.37 807.305Z" fill="#FFFBB3"/>
<path d="M1310.26 866.887V2318.81L2604.26 3205.59L3947.44 2361.62V866.887H1310.26Z" fill="#FCFCFC" stroke="black" stroke-width="1.15691"/>
<path d="M4259.23 2153.95L2655.25 3181.95C2615.96 3207.13 2565.39 3206.24 2527.01 3179.69L997.889 2122.14" stroke="#CBC88F" stroke-width="34.7074" stroke-linecap="round"/>
<path d="M4829.59 2024.38C4505.19 1902.67 4649.3 1753.85 4878.76 1605L4938.92 1667.47C4485.98 1846.21 4874.13 2094.95 5078.32 1872.82C5241.68 1695.12 4961.67 1601.72 4801.24 1577.23L4850.99 1473.11C5465.89 1556.99 5235.09 2176.51 4829.59 2024.38Z" fill="#FFFBB3"/>
<path d="M5225.83 1530.38C5094.87 1538.97 4957.43 1553.96 4878.76 1605L4938.92 1667.47L5275 1605.59L5225.83 1530.38Z" fill="#FFFBB3"/>
<path d="M5032.05 1650.12C4965.88 1612.17 4911.15 1597.67 4892.07 1595.16C4862.56 1607.31 4819.14 1729.59 4849.25 1708.54C4903.05 1670.94 5000.04 1654.94 5032.05 1650.12Z" fill="url(#paint2_linear_39_97)"/>
<path d="M5172.62 1625.82C5164.29 1605.92 5105.51 1564.31 5077.17 1545.99C5149.82 1545.99 5215.81 1589.96 5239.72 1611.94L5172.62 1625.82Z" fill="url(#paint3_linear_39_97)" fill-opacity="0.5"/>
<path d="M1549 1785.28L1655.48 1702.89C1675.89 1687.1 1705.01 1689.68 1722.32 1708.81V1708.81C1735.49 1723.37 1756.03 1728.75 1774.64 1722.5L1858.34 1694.43C1886.96 1684.84 1916.57 1706.13 1916.57 1736.32V1736.32C1916.57 1771.83 1956.34 1792.83 1985.67 1772.8L2026.35 1745.01C2038.02 1737.04 2051.81 1732.78 2065.94 1732.78H2098.34C2121.8 1732.78 2144.94 1738.23 2165.93 1748.7L2177.26 1754.35C2215.94 1773.65 2261.75 1772.12 2299.06 1750.3V1750.3C2318.68 1738.83 2340.99 1732.78 2363.71 1732.78H2456.7H2562.62C2576.25 1732.78 2589.35 1727.51 2599.19 1718.08V1718.08C2622.76 1695.48 2660.99 1699.47 2679.4 1726.44L2688.15 1739.26C2706.29 1765.84 2740.95 1775.46 2770.19 1762.03L2879.02 1712.07C2930.27 1688.54 2989.37 1689.19 3040.09 1713.83V1713.83C3065.77 1726.3 3093.94 1732.78 3122.49 1732.78H3243.66H3246.64C3274.55 1732.78 3302.07 1726.29 3327.04 1713.82L3387.87 1683.44C3423.93 1665.43 3467.55 1673.57 3494.69 1703.36V1703.36C3511.75 1722.1 3535.92 1732.78 3561.26 1732.78H3709" stroke="#B4B4B4" stroke-width="50"/>
<path d="M3709 2016.27L3602.18 2095.45C3581.74 2110.6 3553.2 2108.08 3535.74 2089.59V2089.59C3522.45 2075.52 3502.27 2070.33 3483.85 2076.25L3397.79 2103.9C3369.93 2112.85 3341.43 2092.08 3341.43 2062.82V2062.82C3341.43 2028.52 3303.35 2007.92 3274.65 2026.71L3231.47 2054.96C3219.9 2062.53 3206.38 2066.56 3192.56 2066.56H3159.47C3136.11 2066.56 3113.05 2061.34 3091.97 2051.26L3080.48 2045.77C3041.77 2027.27 2996.48 2028.74 2959.05 2049.72V2049.72C2939.34 2060.76 2917.12 2066.56 2894.52 2066.56H2801.3H2695.13C2681.63 2066.56 2668.63 2071.63 2658.69 2080.76V2080.76C2634.84 2102.67 2597.18 2098.72 2578.39 2072.34L2569.94 2060.49C2551.6 2034.73 2517.69 2025.39 2488.75 2038.13L2378.81 2086.48C2327.46 2109.06 2268.87 2108.44 2218.02 2084.77V2084.77C2192.24 2072.78 2164.16 2066.56 2135.73 2066.56H2014.34H2011.06C1983.32 2066.56 1955.94 2072.78 1930.92 2084.75L1869 2114.38C1833.33 2131.44 1790.74 2123.6 1763.5 2094.94V2094.94C1746.27 2076.82 1722.37 2066.56 1697.37 2066.56H1549" stroke="#B4B4B4" stroke-width="50"/>
<path d="M4560.24 1055.45C4506.86 1266.23 4331.83 1440.13 4235.83 1513C4225.4 1520.92 4220.71 1534.45 4224.97 1546.84C4241.59 1595.19 4270.07 1665.82 4290.25 1673.9C4319.44 1685.59 4515.77 1465.83 4643.2 1213.62C4716.25 1069.03 4802.6 998.853 4864.5 969.514C4887.25 958.73 4898.94 924.162 4881.98 905.553L4790.62 805.313C4785.97 800.21 4779.7 796.686 4772.8 796.603C4718 795.945 4613.42 845.424 4560.24 1055.45Z" fill="#C7AAE8"/>
<path d="M706.687 804.948C511.793 708.537 378.487 500.914 327.379 391.76C321.827 379.901 309.572 372.483 296.572 374.046C245.806 380.148 170.774 393.182 158.641 411.214C141.086 437.306 314.769 675.374 534.627 852.875C660.676 954.639 711.171 1053.79 726.87 1120.46C732.641 1144.97 763.985 1163.66 785.739 1150.98L902.917 1082.68C908.882 1079.2 913.642 1073.82 915.171 1067.09C927.311 1013.65 900.875 901.011 706.687 804.948Z" fill="#C7AAE8"/>
<path d="M668 783.5C634.845 781.921 497.697 647.95 455.16 592.68C454.012 591.189 452.824 589.827 451.32 588.696C426.761 570.222 373.945 587.741 333.405 607.238C315.784 615.712 313.022 638.825 326.949 652.549L526.243 848.943C534.621 857.199 547.057 859.847 557.868 855.212C615.314 830.577 698.266 784.941 668 783.5Z" fill="url(#paint4_linear_39_97)" fill-opacity="0.4"/>
<path d="M4557.53 1057.01C4565.13 1089.13 4441.29 1322.97 4368.62 1393.15C4365.89 1395.79 4363.4 1398.71 4362.54 1402.41C4356.24 1429.56 4401.89 1455.46 4437.63 1479.2C4452.9 1489.34 4474.78 1486.38 4485.09 1471.22L4561.5 1359L4615 1267L4660.61 1174.8C4665.63 1164.63 4664.54 1152.47 4657.38 1143.68C4617.9 1095.23 4550.53 1027.4 4557.53 1057.01Z" fill="url(#paint5_linear_39_97)" fill-opacity="0.6"/>
<path d="M4065.6 436.247C4136.4 641.835 4085.2 883.2 4044.8 996.752C4040.41 1009.09 4043.91 1022.98 4054.25 1031.01C4094.64 1062.36 4157.16 1105.85 4178.46 1101.56C4209.29 1095.35 4253.18 803.947 4221.64 523.144C4203.57 362.156 4237.37 256.15 4273.09 197.699C4286.22 176.213 4277.07 140.888 4252.68 134.609L4121.34 100.786C4114.65 99.0641 4107.48 99.5459 4101.66 103.258C4055.46 132.722 3995.06 231.403 4065.6 436.247Z" fill="#A0D8FF"/>
<path d="M4064.19 439.043C4088.14 461.755 4112.62 725.222 4090.25 823.744C4089.41 827.446 4088.94 831.256 4090.25 834.819C4099.84 860.988 4152.22 857.652 4195.12 857.936C4213.45 858.057 4230.13 843.595 4230.47 825.263L4232.92 689.524L4227.29 583.248L4214.95 481.129C4213.59 469.87 4206.01 460.296 4195.2 456.863C4135.64 437.947 4042.11 418.102 4064.19 439.043Z" fill="url(#paint6_linear_39_97)" fill-opacity="0.3"/>
<path d="M1226.01 355.316C1331.35 443.33 1372.35 590.092 1382.52 671.618C1384.28 685.72 1395.72 697.408 1410.71 698.621C1446.35 701.506 1492.65 702.715 1504.29 693.593C1522.82 679.076 1462.78 497.663 1356 349.152C1305.53 278.956 1289.86 217.456 1289.16 172.26C1288.76 146.382 1258.13 116.949 1231.93 124.362L1161.82 144.198C1155.87 145.882 1150.48 149.132 1147.34 154.177C1126.25 188.016 1117.84 264.949 1226.01 355.316Z" fill="#FFFBB3"/>
<path d="M1225.93 357.411C1248.55 361.761 1343.91 500.572 1360.45 565.329C1361.33 568.784 1362.5 572.316 1365.57 574.219C1378.74 582.383 1405.36 568.193 1430.37 554.682C1447.89 545.215 1457.35 523.96 1449.55 508.68L1414.36 439.788L1378.13 381.335L1341.51 331.456C1335.43 323.171 1324.45 319.34 1313.04 322.089C1267.98 332.953 1205.68 353.516 1225.93 357.411Z" fill="url(#paint7_linear_39_97)" fill-opacity="0.3"/>
</g>
<defs>
<linearGradient id="paint0_linear_39_97" x1="553.5" y1="3789.5" x2="1119" y2="4130" gradientUnits="userSpaceOnUse">
<stop stop-color="#FFFBB3"/>
<stop offset="1" stop-color="#99976C"/>
</linearGradient>
<linearGradient id="paint1_linear_39_97" x1="1458.9" y1="4675.86" x2="1311.65" y2="4244.62" gradientUnits="userSpaceOnUse">
<stop stop-color="#FFFBB3"/>
<stop offset="1" stop-color="#99976C"/>
</linearGradient>
<linearGradient id="paint2_linear_39_97" x1="4938.34" y1="1639.13" x2="5000.81" y2="1567.4" gradientUnits="userSpaceOnUse">
<stop stop-color="#FFFBB3"/>
<stop offset="1" stop-color="#99976C"/>
</linearGradient>
<linearGradient id="paint3_linear_39_97" x1="5158.44" y1="1545.99" x2="5069.07" y2="1626.4" gradientUnits="userSpaceOnUse">
<stop stop-color="#FFFBB3"/>
<stop offset="1" stop-color="#99976C"/>
</linearGradient>
<linearGradient id="paint4_linear_39_97" x1="461.548" y1="580.869" x2="562" y2="801.5" gradientUnits="userSpaceOnUse">
<stop stop-color="#C7AAE8"/>
<stop offset="0.396666" stop-color="#705F82" stop-opacity="0.4"/>
<stop offset="1" stop-color="#C7AAE8"/>
</linearGradient>
<linearGradient id="paint5_linear_39_97" x1="4411" y1="1447.5" x2="4604.5" y2="1112" gradientUnits="userSpaceOnUse">
<stop stop-color="#C7AAE8"/>
<stop offset="0.396666" stop-color="#705F82" stop-opacity="0.4"/>
<stop offset="1" stop-color="#C7AAE8"/>
</linearGradient>
<linearGradient id="paint6_linear_39_97" x1="4155.48" y1="846.002" x2="4133.61" y2="459.318" gradientUnits="userSpaceOnUse">
<stop stop-color="#A0D8FF"/>
<stop offset="0.396666" stop-color="#705F82" stop-opacity="0.4"/>
<stop offset="1" stop-color="#A0D8FF"/>
</linearGradient>
<linearGradient id="paint7_linear_39_97" x1="1410.9" y1="556.4" x2="1281.84" y2="341.981" gradientUnits="userSpaceOnUse">
<stop stop-color="#FFFBB3"/>
<stop offset="0.396666" stop-color="#705F82" stop-opacity="0.4"/>
<stop offset="1" stop-color="#FFFBB3"/>
</linearGradient>
<clipPath id="clip0_39_97">
<rect width="5382" height="5382" fill="white"/>
</clipPath>
</defs>
</svg>
