<svg width="5382" height="5382" viewBox="0 0 5382 5382" fill="none" xmlns="http://www.w3.org/2000/svg">
<g clip-path="url(#clip0_40_113)">
<rect width="5382" height="5382" fill="#A0D8FF"/>
<path d="M3875.51 828C3770.33 951.198 2000.68 968.711 1129 962.068C1322.97 1069.32 3067.82 1042.99 3916 1016.42L3875.51 828Z" fill="#F5F5F5"/>
<path d="M2111.21 4064.7C1398.44 4546.98 773.991 4111.67 1013.8 3233.86C1049.55 3137.2 1027.91 2756.86 771.3 3091.86C18.4658 4074.69 1481.71 4724.04 2139.13 4901.96C2147.79 4904.3 2156.39 4900.59 2160.91 4892.84C2443.1 4409.59 2817.65 3586.71 2111.21 4064.7Z" fill="#C7AAE8" fill-opacity="0.4"/>
<path d="M4119.96 1841.6L4057.48 1508.57C4053.3 1486.33 4083.48 1475.36 4094.57 1495.08L4204.68 1690.94C4207.16 1695.35 4211.22 1698.66 4216.04 1700.19L4470.87 1781.39C4477.53 1783.51 4482.6 1788.95 4484.24 1795.74L4543.66 2041.47C4548.56 2061.74 4523.04 2075.04 4509.23 2059.41L4369.78 1901.6C4366.75 1898.17 4362.64 1895.89 4358.12 1895.12L4136.29 1857.63C4128.02 1856.23 4121.51 1849.83 4119.96 1841.6Z" fill="#FFFBB3" stroke="black" stroke-width="10"/>
<path d="M4675.29 751.522L4276.02 721.119C4253.65 719.415 4250.61 687.815 4272.26 681.887L4548.34 606.269C4552.92 605.014 4556.9 602.171 4559.58 598.247L4748.21 321.647C4752.01 316.066 4758.38 312.784 4765.13 312.919L5061.76 318.862C5082.5 319.278 5088.97 347.114 5070.53 356.631L4832.51 479.478C4828.8 481.393 4825.78 484.421 4823.87 488.138L4694.61 740.692C4690.94 747.865 4683.32 752.134 4675.29 751.522Z" fill="#C7AAE8" stroke="black" stroke-width="10"/>
<path d="M3556.36 2664.84L3871.64 2911.69C3889.31 2925.53 3912.86 2904.24 3900.88 2885.27L3748.06 2643.23C3745.52 2639.21 3744.5 2634.43 3745.17 2629.73L3792.47 2298.29C3793.42 2291.6 3790.94 2284.88 3785.86 2280.43L3562.85 2084.75C3547.25 2071.06 3523.71 2087.25 3530.9 2106.71L3623.78 2357.95C3625.22 2361.87 3625.41 2366.14 3624.31 2370.17L3549.4 2643.81C3547.27 2651.58 3550.02 2659.87 3556.36 2664.84Z" fill="#C2E6FF" stroke="black" stroke-width="10"/>
<rect x="1099" y="1016" width="2819.81" height="3916.54" fill="#FEFEFE"/>
<path d="M3551.69 4094.49C3004.39 4163.75 2892.04 3928.59 2812 3803.68C3257.72 3705.2 3551.69 3719.76 3814.74 3719.76C3897.33 3719.76 4099 4025.22 3551.69 4094.49Z" fill="#FFFAAC" fill-opacity="0.3"/>
<path d="M3557.4 3982.37C3039.77 4048.41 2910.49 3900.59 2832 3839.02C3269.1 3790.47 3641.15 3919.8 3815.36 3797.65C3916.58 3726.68 4075.02 3916.33 3557.4 3982.37Z" fill="#C7AAE8" fill-opacity="0.15"/>
<path d="M2400.42 1546.72C2637.48 1100.78 1309.12 666.847 1743.9 666.847C1451.93 523.363 1015.85 909.116 803 1232.65C846.118 2112.02 2111.43 2090.36 2400.42 1546.72Z" fill="url(#paint0_linear_40_113)" fill-opacity="0.2"/>
<path d="M2329.77 2488.09H3702.25C3705.36 2488.09 3708.45 2488.63 3711.38 2489.68L3730.57 2496.57C3759.1 2506.81 3751.75 2549.04 3721.44 2549.04H2910.63C2878.24 2549.04 2873.36 2595.68 2905.05 2602.38V2602.38C2906.88 2602.76 2908.75 2602.96 2910.63 2602.96H3919" stroke="#C7AAE8" stroke-width="40.5417" stroke-linecap="round"/>
<path d="M2189 4639.5C2371.8 3968.7 2089.17 2817 1925 2325C1878.17 2754.67 1784.5 3644.5 1784.5 3766.5C1784.5 3919 1960.5 5478 2189 4639.5Z" fill="url(#paint1_linear_40_113)" fill-opacity="0.1"/>
<path d="M2729.52 4729.93C2864.59 4200.63 2502.35 3346.37 2304.34 2985.4C2287.8 3318.01 2256.87 4006.55 2265.42 4099.77C2276.1 4216.31 2560.68 5391.56 2729.52 4729.93Z" fill="url(#paint2_linear_40_113)" fill-opacity="0.3"/>
<g filter="url(#filter0_d_40_113)">
<path d="M3703 3874.5C4948.06 3617.01 4394.43 3270.74 3940.35 3121.33C3927.52 3117.11 3914.5 3126.76 3914.5 3140.28V3321.74C3914.5 3330.03 3919.66 3337.47 3927.39 3340.47C4215.84 3452.31 4421.58 3581.28 3544.5 3769C2875.21 3912.24 3021.44 3624.1 3202.96 3433.68C3215.39 3420.64 3206.34 3398.5 3188.34 3398.5H3138.96C3134.45 3398.5 3130.11 3399.99 3126.59 3402.8C2789.88 3671.49 2440.96 4135.5 3703 3874.5Z" fill="#FFFAAC"/>
</g>
<g filter="url(#filter1_d_40_113)">
<path d="M3702.83 3740.6C4903.87 3507.18 4160.96 3314.85 3945.32 3215.85C3931.22 3209.37 3914.32 3219.67 3914.32 3235.19V3341.66C3914.32 3348.96 3918.31 3355.71 3924.77 3359.12C4155.78 3480.98 4421.14 3465.11 3544.33 3641.46C2867.47 3777.59 3044.73 3572.93 3230.99 3401.43C3243.02 3390.36 3237.58 3370.27 3221.59 3366.9L3168.6 3355.74C3161.99 3354.34 3155.21 3356.3 3150.41 3361.06C2888.73 3621.14 2446.29 3984.8 3702.83 3740.6Z" fill="#C7AAE8"/>
</g>
<rect x="1926.99" y="2973.73" width="469.116" height="1596.53" rx="25.5649" fill="#FFFAA3" fill-opacity="0.9"/>
<path d="M2440.43 2231.55V2393H2406.29V2231.55H2440.43ZM2532.29 2271.91V2297.14H2459.37V2271.91H2532.29ZM2475.92 2242.9H2509.5V2355.79C2509.5 2358.89 2509.98 2361.31 2510.92 2363.04C2511.87 2364.73 2513.18 2365.91 2514.86 2366.59C2516.6 2367.27 2518.6 2367.62 2520.86 2367.62C2522.43 2367.62 2524.01 2367.48 2525.59 2367.22C2527.16 2366.91 2528.37 2366.67 2529.21 2366.51L2534.49 2391.5C2532.81 2392.03 2530.45 2392.63 2527.4 2393.32C2524.35 2394.05 2520.65 2394.5 2516.28 2394.66C2508.19 2394.97 2501.09 2393.89 2495 2391.42C2488.95 2388.95 2484.25 2385.12 2480.89 2379.91C2477.52 2374.71 2475.87 2368.14 2475.92 2360.21V2242.9ZM2587.73 2231.55V2248.58C2587.73 2253.41 2586.78 2258.35 2584.89 2263.4C2583.05 2268.39 2580.58 2273.12 2577.48 2277.59C2574.38 2282 2570.99 2285.76 2567.31 2288.86L2552.49 2280.11C2555.11 2275.96 2557.43 2271.36 2559.42 2266.31C2561.47 2261.27 2562.5 2255.41 2562.5 2248.74V2231.55H2587.73ZM2695.67 2306.44L2664.92 2308.33C2664.4 2305.71 2663.27 2303.34 2661.53 2301.24C2659.8 2299.08 2657.51 2297.38 2654.67 2296.11C2651.89 2294.8 2648.55 2294.14 2644.66 2294.14C2639.46 2294.14 2635.07 2295.25 2631.5 2297.45C2627.92 2299.61 2626.14 2302.5 2626.14 2306.13C2626.14 2309.02 2627.29 2311.46 2629.61 2313.46C2631.92 2315.45 2635.89 2317.06 2641.51 2318.27L2663.43 2322.68C2675.2 2325.1 2683.97 2328.99 2689.76 2334.35C2695.54 2339.71 2698.43 2346.75 2698.43 2355.48C2698.43 2363.41 2696.09 2370.37 2691.41 2376.37C2686.79 2382.36 2680.43 2387.03 2672.33 2390.4C2664.29 2393.71 2655.02 2395.36 2644.51 2395.36C2628.48 2395.36 2615.7 2392.03 2606.19 2385.35C2596.73 2378.63 2591.19 2369.48 2589.56 2357.92L2622.59 2356.18C2623.59 2361.07 2626.01 2364.8 2629.84 2367.38C2633.68 2369.9 2638.59 2371.16 2644.58 2371.16C2650.47 2371.16 2655.2 2370.03 2658.77 2367.77C2662.4 2365.46 2664.24 2362.49 2664.29 2358.87C2664.24 2355.82 2662.95 2353.32 2660.43 2351.38C2657.91 2349.38 2654.02 2347.85 2648.76 2346.8L2627.79 2342.63C2615.97 2340.26 2607.16 2336.16 2601.38 2330.33C2595.65 2324.49 2592.79 2317.06 2592.79 2308.02C2592.79 2300.24 2594.89 2293.54 2599.1 2287.92C2603.35 2282.29 2609.32 2277.96 2616.99 2274.91C2624.72 2271.86 2633.76 2270.34 2644.11 2270.34C2659.4 2270.34 2671.44 2273.57 2680.22 2280.03C2689.05 2286.5 2694.2 2295.3 2695.67 2306.44ZM2805.48 2395.29C2797.76 2395.29 2790.87 2393.95 2784.83 2391.27C2778.78 2388.53 2774 2384.51 2770.48 2379.2C2767.01 2373.84 2765.28 2367.17 2765.28 2359.18C2765.28 2352.45 2766.51 2346.8 2768.98 2342.23C2771.45 2337.66 2774.82 2333.98 2779.07 2331.19C2783.33 2328.41 2788.17 2326.31 2793.58 2324.89C2799.04 2323.47 2804.77 2322.47 2810.76 2321.89C2817.81 2321.16 2823.48 2320.47 2827.79 2319.84C2832.1 2319.16 2835.23 2318.16 2837.17 2316.85C2839.12 2315.53 2840.09 2313.59 2840.09 2311.01V2310.54C2840.09 2305.55 2838.51 2301.68 2835.36 2298.95C2832.26 2296.22 2827.85 2294.85 2822.12 2294.85C2816.07 2294.85 2811.26 2296.19 2807.69 2298.87C2804.12 2301.5 2801.75 2304.81 2800.6 2308.81L2769.53 2306.28C2771.11 2298.93 2774.21 2292.57 2778.84 2287.21C2783.46 2281.79 2789.43 2277.64 2796.73 2274.75C2804.09 2271.81 2812.6 2270.34 2822.27 2270.34C2829 2270.34 2835.44 2271.12 2841.59 2272.7C2847.79 2274.28 2853.28 2276.72 2858.06 2280.03C2862.9 2283.34 2866.71 2287.6 2869.5 2292.8C2872.28 2297.95 2873.67 2304.13 2873.67 2311.33V2393H2841.82V2376.21H2840.88C2838.93 2379.99 2836.33 2383.33 2833.07 2386.22C2829.82 2389.06 2825.9 2391.29 2821.33 2392.92C2816.76 2394.5 2811.47 2395.29 2805.48 2395.29ZM2815.1 2372.11C2820.04 2372.11 2824.4 2371.14 2828.19 2369.19C2831.97 2367.2 2834.94 2364.51 2837.09 2361.15C2839.25 2357.79 2840.33 2353.98 2840.33 2349.72V2336.87C2839.28 2337.55 2837.83 2338.18 2835.99 2338.76C2834.2 2339.29 2832.18 2339.79 2829.92 2340.26C2827.66 2340.68 2825.4 2341.08 2823.14 2341.44C2820.88 2341.76 2818.83 2342.05 2816.99 2342.31C2813.05 2342.89 2809.61 2343.81 2806.67 2345.07C2803.72 2346.33 2801.44 2348.04 2799.81 2350.19C2798.18 2352.3 2797.36 2354.92 2797.36 2358.08C2797.36 2362.65 2799.02 2366.14 2802.33 2368.56C2805.69 2370.93 2809.95 2372.11 2815.1 2372.11ZM2951.11 2393V2271.91H2983.11V2293.28H2984.53C2987.06 2286.18 2991.26 2280.58 2997.15 2276.48C3003.03 2272.39 3010.07 2270.34 3018.27 2270.34C3026.58 2270.34 3033.65 2272.41 3039.48 2276.56C3045.31 2280.66 3049.2 2286.23 3051.15 2293.28H3052.41C3054.88 2286.34 3059.35 2280.79 3065.81 2276.64C3072.33 2272.44 3080.03 2270.34 3088.91 2270.34C3100.21 2270.34 3109.38 2273.94 3116.42 2281.14C3123.52 2288.28 3127.06 2298.43 3127.06 2311.57V2393H3093.56V2318.19C3093.56 2311.46 3091.77 2306.41 3088.2 2303.05C3084.62 2299.69 3080.16 2298.01 3074.8 2298.01C3068.7 2298.01 3063.94 2299.95 3060.53 2303.84C3057.11 2307.68 3055.4 2312.75 3055.4 2319.05V2393H3022.85V2317.48C3022.85 2311.54 3021.14 2306.81 3017.72 2303.29C3014.36 2299.77 3009.92 2298.01 3004.4 2298.01C3000.67 2298.01 2997.3 2298.95 2994.31 2300.84C2991.36 2302.68 2989.03 2305.28 2987.29 2308.65C2985.56 2311.96 2984.69 2315.85 2984.69 2320.32V2393H2951.11ZM3188.12 2395.29C3180.39 2395.29 3173.51 2393.95 3167.47 2391.27C3161.42 2388.53 3156.64 2384.51 3153.12 2379.2C3149.65 2373.84 3147.91 2367.17 3147.91 2359.18C3147.91 2352.45 3149.15 2346.8 3151.62 2342.23C3154.09 2337.66 3157.45 2333.98 3161.71 2331.19C3165.97 2328.41 3170.8 2326.31 3176.22 2324.89C3181.68 2323.47 3187.41 2322.47 3193.4 2321.89C3200.44 2321.16 3206.12 2320.47 3210.43 2319.84C3214.74 2319.16 3217.87 2318.16 3219.81 2316.85C3221.76 2315.53 3222.73 2313.59 3222.73 2311.01V2310.54C3222.73 2305.55 3221.15 2301.68 3218 2298.95C3214.9 2296.22 3210.48 2294.85 3204.75 2294.85C3198.71 2294.85 3193.9 2296.19 3190.33 2298.87C3186.75 2301.5 3184.39 2304.81 3183.23 2308.81L3152.17 2306.28C3153.75 2298.93 3156.85 2292.57 3161.47 2287.21C3166.1 2281.79 3172.06 2277.64 3179.37 2274.75C3186.73 2271.81 3195.24 2270.34 3204.91 2270.34C3211.64 2270.34 3218.08 2271.12 3224.23 2272.7C3230.43 2274.28 3235.92 2276.72 3240.7 2280.03C3245.54 2283.34 3249.35 2287.6 3252.13 2292.8C3254.92 2297.95 3256.31 2304.13 3256.31 2311.33V2393H3224.46V2376.21H3223.52C3221.57 2379.99 3218.97 2383.33 3215.71 2386.22C3212.45 2389.06 3208.54 2391.29 3203.97 2392.92C3199.39 2394.5 3194.11 2395.29 3188.12 2395.29ZM3197.74 2372.11C3202.68 2372.11 3207.04 2371.14 3210.82 2369.19C3214.61 2367.2 3217.58 2364.51 3219.73 2361.15C3221.89 2357.79 3222.96 2353.98 3222.96 2349.72V2336.87C3221.91 2337.55 3220.47 2338.18 3218.63 2338.76C3216.84 2339.29 3214.82 2339.79 3212.56 2340.26C3210.3 2340.68 3208.04 2341.08 3205.78 2341.44C3203.52 2341.76 3201.47 2342.05 3199.63 2342.31C3195.69 2342.89 3192.25 2343.81 3189.3 2345.07C3186.36 2346.33 3184.07 2348.04 3182.44 2350.19C3180.81 2352.3 3180 2354.92 3180 2358.08C3180 2362.65 3181.66 2366.14 3184.97 2368.56C3188.33 2370.93 3192.59 2372.11 3197.74 2372.11ZM3346.77 2271.91V2297.14H3273.85V2271.91H3346.77ZM3290.41 2242.9H3323.99V2355.79C3323.99 2358.89 3324.46 2361.31 3325.41 2363.04C3326.35 2364.73 3327.67 2365.91 3329.35 2366.59C3331.08 2367.27 3333.08 2367.62 3335.34 2367.62C3336.92 2367.62 3338.49 2367.48 3340.07 2367.22C3341.65 2366.91 3342.86 2366.67 3343.7 2366.51L3348.98 2391.5C3347.3 2392.03 3344.93 2392.63 3341.88 2393.32C3338.84 2394.05 3335.13 2394.5 3330.77 2394.66C3322.67 2394.97 3315.58 2393.89 3309.48 2391.42C3303.44 2388.95 3298.74 2385.12 3295.37 2379.91C3292.01 2374.71 3290.35 2368.14 3290.41 2360.21V2242.9ZM3422.06 2395.36C3409.65 2395.36 3398.99 2392.74 3390.05 2387.48C3381.17 2382.17 3374.34 2374.82 3369.55 2365.41C3364.82 2356 3362.46 2345.17 3362.46 2332.93C3362.46 2320.53 3364.85 2309.65 3369.63 2300.29C3374.47 2290.88 3381.33 2283.55 3390.21 2278.3C3399.09 2272.99 3409.65 2270.34 3421.9 2270.34C3432.46 2270.34 3441.71 2272.25 3449.65 2276.09C3457.58 2279.93 3463.87 2285.31 3468.49 2292.25C3473.11 2299.19 3475.66 2307.33 3476.14 2316.69H3444.45C3443.55 2310.65 3441.19 2305.78 3437.35 2302.11C3433.57 2298.37 3428.6 2296.51 3422.45 2296.51C3417.25 2296.51 3412.7 2297.93 3408.81 2300.77C3404.98 2303.55 3401.98 2307.62 3399.83 2312.98C3397.67 2318.34 3396.59 2324.84 3396.59 2332.46C3396.59 2340.18 3397.65 2346.75 3399.75 2352.16C3401.9 2357.58 3404.92 2361.7 3408.81 2364.54C3412.7 2367.38 3417.25 2368.8 3422.45 2368.8C3426.29 2368.8 3429.73 2368.01 3432.78 2366.43C3435.88 2364.86 3438.43 2362.57 3440.43 2359.57C3442.48 2356.53 3443.82 2352.87 3444.45 2348.62H3476.14C3475.61 2357.87 3473.09 2366.01 3468.57 2373.06C3464.1 2380.05 3457.93 2385.51 3450.04 2389.45C3442.16 2393.39 3432.83 2395.36 3422.06 2395.36ZM3531.22 2323V2393H3497.64V2231.55H3530.28V2293.28H3531.69C3534.43 2286.13 3538.84 2280.53 3544.94 2276.48C3551.03 2272.39 3558.68 2270.34 3567.88 2270.34C3576.29 2270.34 3583.62 2272.17 3589.87 2275.85C3596.18 2279.48 3601.07 2284.71 3604.54 2291.54C3608.06 2298.32 3609.79 2306.44 3609.74 2315.9V2393H3576.16V2321.89C3576.21 2314.43 3574.32 2308.62 3570.48 2304.47C3566.7 2300.32 3561.39 2298.24 3554.56 2298.24C3549.98 2298.24 3545.94 2299.21 3542.42 2301.16C3538.95 2303.1 3536.21 2305.94 3534.22 2309.67C3532.27 2313.35 3531.27 2317.79 3531.22 2323ZM3676.29 2231.55L3673.22 2344.6H3644.37L3641.21 2231.55H3676.29ZM3658.79 2395.05C3653.59 2395.05 3649.12 2393.21 3645.39 2389.53C3641.66 2385.8 3639.82 2381.33 3639.87 2376.13C3639.82 2370.98 3641.66 2366.56 3645.39 2362.89C3649.12 2359.21 3653.59 2357.37 3658.79 2357.37C3663.79 2357.37 3668.17 2359.21 3671.96 2362.89C3675.74 2366.56 3677.66 2370.98 3677.71 2376.13C3677.66 2379.6 3676.74 2382.78 3674.95 2385.67C3673.22 2388.51 3670.93 2390.79 3668.1 2392.53C3665.26 2394.21 3662.16 2395.05 3658.79 2395.05Z" fill="black"/>
<circle cx="3919" cy="4730" r="648" fill="#97ECB7"/>
<circle cx="4425" cy="4219" r="345" fill="#FFFAAC"/>
<rect x="1457.88" y="2312.88" width="469.116" height="2257.38" rx="10.226" fill="#C7AAE8"/>
<path d="M3752 757.361C3938.96 923.501 2102.1 986.344 1144.5 997C2729.87 979.358 3727.65 953.843 3870.25 835.395C3871.77 834.127 3871.33 831.958 3869.65 830.905L3752 757.361Z" fill="#EFEDED"/>
<path d="M3672.5 735.361C3603 776.5 2022.6 964.344 1065 975C2589.17 982.972 3809.47 912.494 3768.48 767.524C3768.22 766.612 3767.47 765.829 3766.57 765.54L3672.5 735.361Z" fill="#E8E8E8"/>
<rect x="758" y="531" width="1333.21" height="1333.21" rx="20" fill="#F48484"/>
<path d="M1874.64 1196.97C1920.12 1196.97 1957.64 1159.88 1950.68 1114.94C1934.77 1012.32 1889.25 915.887 1818.85 837.95C1729.93 739.514 1607.65 677.579 1475.68 664.138C1343.71 650.696 1211.45 686.706 1104.51 765.193C997.574 843.679 923.567 959.058 896.822 1088.98C870.078 1218.91 892.501 1354.14 959.748 1468.48C1026.99 1582.82 1134.28 1668.14 1260.83 1707.91C1387.38 1747.68 1524.18 1739.08 1644.75 1683.76C1740.21 1639.97 1820.11 1569.36 1875.25 1481.36C1899.4 1442.82 1879.58 1393.93 1837.8 1375.97V1375.97C1796.01 1358.01 1748.24 1378.09 1721.52 1414.89C1684.34 1466.08 1634.4 1507.3 1576.07 1534.07C1492.58 1572.37 1397.84 1578.33 1310.21 1550.79C1222.58 1523.25 1148.28 1464.16 1101.72 1384.98C1055.15 1305.81 1039.62 1212.16 1058.14 1122.19C1076.66 1032.22 1127.91 952.321 1201.96 897.97C1276.02 843.619 1367.61 818.683 1458.99 827.991C1550.38 837.299 1635.06 880.188 1696.63 948.353C1739.65 995.978 1769.25 1053.57 1783.19 1115.29C1793.2 1159.65 1829.16 1196.97 1874.64 1196.97V1196.97Z" fill="white"/>
<path d="M1245.56 1111.4C1254.27 1111.4 1262.64 1112.86 1270.69 1115.78C1278.79 1118.7 1286.01 1123.36 1292.34 1129.75C1298.74 1136.14 1303.78 1144.63 1307.47 1155.21C1311.22 1165.73 1313.12 1178.66 1313.17 1193.98C1313.17 1208.36 1311.55 1221.2 1308.3 1232.5C1305.1 1243.74 1300.5 1253.3 1294.49 1261.18C1288.49 1269.06 1281.24 1275.06 1272.75 1279.2C1264.27 1283.28 1254.79 1285.31 1244.32 1285.31C1233.02 1285.31 1223.05 1283.14 1214.4 1278.78C1205.75 1274.38 1198.77 1268.4 1193.48 1260.85C1188.25 1253.24 1185.08 1244.7 1183.98 1235.22H1219.27C1220.65 1241.4 1223.54 1246.19 1227.95 1249.61C1232.36 1252.97 1237.82 1254.65 1244.32 1254.65C1255.34 1254.65 1263.72 1249.85 1269.45 1240.27C1275.18 1230.62 1278.07 1217.42 1278.13 1200.67H1276.97C1274.43 1205.63 1271.02 1209.9 1266.72 1213.48C1262.42 1217.01 1257.49 1219.74 1251.92 1221.67C1246.41 1223.6 1240.54 1224.56 1234.32 1224.56C1224.34 1224.56 1215.44 1222.22 1207.62 1217.53C1199.79 1212.85 1193.62 1206.4 1189.1 1198.19C1184.58 1189.98 1182.33 1180.61 1182.33 1170.09C1182.27 1158.74 1184.89 1148.62 1190.18 1139.75C1195.47 1130.88 1202.85 1123.94 1212.33 1118.92C1221.86 1113.85 1232.94 1111.35 1245.56 1111.4ZM1245.81 1139.5C1240.24 1139.5 1235.28 1140.83 1230.93 1143.47C1226.63 1146.12 1223.21 1149.67 1220.68 1154.13C1218.2 1158.6 1216.99 1163.59 1217.04 1169.1C1217.04 1174.66 1218.25 1179.68 1220.68 1184.14C1223.16 1188.55 1226.52 1192.08 1230.76 1194.72C1235.06 1197.31 1239.97 1198.61 1245.48 1198.61C1249.61 1198.61 1253.44 1197.83 1256.97 1196.29C1260.49 1194.75 1263.55 1192.63 1266.14 1189.93C1268.79 1187.17 1270.85 1184 1272.34 1180.42C1273.83 1176.84 1274.57 1173.04 1274.57 1169.01C1274.52 1163.67 1273.25 1158.76 1270.77 1154.3C1268.29 1149.84 1264.87 1146.25 1260.52 1143.55C1256.17 1140.85 1251.26 1139.5 1245.81 1139.5ZM1400.54 1285.31C1388.2 1285.31 1377.21 1283.19 1367.56 1278.95C1357.98 1274.65 1350.4 1268.76 1344.83 1261.26C1339.32 1253.71 1336.48 1245 1336.32 1235.14H1372.36C1372.58 1239.27 1373.93 1242.91 1376.41 1246.05C1378.94 1249.14 1382.3 1251.53 1386.49 1253.24C1390.68 1254.95 1395.39 1255.81 1400.63 1255.81C1406.08 1255.81 1410.9 1254.84 1415.09 1252.91C1419.28 1250.98 1422.56 1248.31 1424.93 1244.89C1427.3 1241.48 1428.48 1237.54 1428.48 1233.07C1428.48 1228.56 1427.22 1224.56 1424.68 1221.09C1422.2 1217.56 1418.62 1214.81 1413.94 1212.82C1409.31 1210.84 1403.8 1209.85 1397.4 1209.85H1381.62V1183.56H1397.4C1402.8 1183.56 1407.57 1182.62 1411.7 1180.75C1415.89 1178.88 1419.14 1176.29 1421.46 1172.98C1423.77 1169.62 1424.93 1165.71 1424.93 1161.24C1424.93 1157 1423.91 1153.28 1421.87 1150.08C1419.89 1146.83 1417.08 1144.3 1413.44 1142.48C1409.86 1140.66 1405.67 1139.75 1400.88 1139.75C1396.03 1139.75 1391.59 1140.63 1387.57 1142.4C1383.54 1144.11 1380.32 1146.56 1377.9 1149.75C1375.47 1152.95 1374.18 1156.7 1374.01 1161H1339.71C1339.87 1151.24 1342.66 1142.65 1348.06 1135.21C1353.46 1127.77 1360.73 1121.95 1369.88 1117.76C1379.08 1113.52 1389.47 1111.4 1401.04 1111.4C1412.72 1111.4 1422.95 1113.52 1431.71 1117.76C1440.47 1122.01 1447.27 1127.74 1452.12 1134.96C1457.03 1142.12 1459.45 1150.17 1459.4 1159.09C1459.45 1168.57 1456.5 1176.48 1450.55 1182.82C1444.66 1189.15 1436.97 1193.18 1427.49 1194.89V1196.21C1439.95 1197.81 1449.42 1202.13 1455.93 1209.19C1462.48 1216.18 1465.74 1224.95 1465.68 1235.47C1465.74 1245.11 1462.95 1253.68 1457.33 1261.18C1451.77 1268.67 1444.08 1274.57 1434.27 1278.87C1424.46 1283.17 1413.22 1285.31 1400.54 1285.31ZM1584.07 1251.26V1242.33C1584.07 1235.55 1585.5 1229.33 1588.37 1223.65C1591.29 1217.92 1595.5 1213.35 1601.01 1209.93C1606.58 1206.46 1613.36 1204.72 1621.35 1204.72C1629.45 1204.72 1636.25 1206.43 1641.76 1209.85C1647.33 1213.26 1651.52 1217.84 1654.33 1223.57C1657.19 1229.24 1658.63 1235.5 1658.63 1242.33V1251.26C1658.63 1258.04 1657.19 1264.29 1654.33 1270.02C1651.46 1275.7 1647.25 1280.24 1641.68 1283.66C1636.12 1287.13 1629.34 1288.87 1621.35 1288.87C1613.25 1288.87 1606.44 1287.13 1600.93 1283.66C1595.42 1280.24 1591.23 1275.7 1588.37 1270.02C1585.5 1264.29 1584.07 1258.04 1584.07 1251.26ZM1608.12 1242.33V1251.26C1608.12 1255.17 1609.06 1258.86 1610.93 1262.34C1612.86 1265.81 1616.33 1267.54 1621.35 1267.54C1626.36 1267.54 1629.78 1265.83 1631.6 1262.42C1633.47 1259 1634.41 1255.28 1634.41 1251.26V1242.33C1634.41 1238.31 1633.53 1234.56 1631.76 1231.09C1630 1227.62 1626.53 1225.88 1621.35 1225.88C1616.39 1225.88 1612.94 1227.62 1611.02 1231.09C1609.09 1234.56 1608.12 1238.31 1608.12 1242.33ZM1497.19 1154.38V1145.46C1497.19 1138.62 1498.65 1132.37 1501.57 1126.69C1504.5 1120.96 1508.71 1116.39 1514.22 1112.97C1519.79 1109.55 1526.51 1107.85 1534.39 1107.85C1542.55 1107.85 1549.38 1109.55 1554.89 1112.97C1560.4 1116.39 1564.59 1120.96 1567.45 1126.69C1570.32 1132.37 1571.75 1138.62 1571.75 1145.46V1154.38C1571.75 1161.22 1570.29 1167.47 1567.37 1173.15C1564.51 1178.82 1560.29 1183.37 1554.72 1186.79C1549.21 1190.15 1542.44 1191.83 1534.39 1191.83C1526.34 1191.83 1519.54 1190.12 1513.97 1186.7C1508.46 1183.23 1504.27 1178.68 1501.41 1173.06C1498.6 1167.39 1497.19 1161.16 1497.19 1154.38ZM1521.41 1145.46V1154.38C1521.41 1158.41 1522.35 1162.13 1524.22 1165.54C1526.15 1168.96 1529.54 1170.67 1534.39 1170.67C1539.46 1170.67 1542.9 1168.96 1544.72 1165.54C1546.6 1162.13 1547.53 1158.41 1547.53 1154.38V1145.46C1547.53 1141.43 1546.65 1137.69 1544.89 1134.21C1543.12 1130.74 1539.63 1129.01 1534.39 1129.01C1529.49 1129.01 1526.1 1130.77 1524.22 1134.3C1522.35 1137.82 1521.41 1141.54 1521.41 1145.46ZM1508.1 1283L1624.49 1113.71H1646.15L1529.76 1283H1508.1Z" fill="black"/>
<path d="M3534 1016H3906.5C3912.02 1016 3916.5 1020.48 3916.5 1026V1321.5" stroke="#F5F5F5" stroke-width="30" stroke-linecap="round"/>
</g>
<defs>
<filter id="filter0_d_40_113" x="2804.15" y="3120.33" width="1660.04" height="839.219" filterUnits="userSpaceOnUse" color-interpolation-filters="sRGB">
<feFlood flood-opacity="0" result="BackgroundImageFix"/>
<feColorMatrix in="SourceAlpha" type="matrix" values="0 0 0 0 0 0 0 0 0 0 0 0 0 0 0 0 0 0 127 0" result="hardAlpha"/>
<feOffset dx="-4" dy="4"/>
<feGaussianBlur stdDeviation="2"/>
<feComposite in2="hardAlpha" operator="out"/>
<feColorMatrix type="matrix" values="0 0 0 0 0 0 0 0 0 0 0 0 0 0 0 0 0 0 0.25 0"/>
<feBlend mode="normal" in2="BackgroundImageFix" result="effect1_dropShadow_40_113"/>
<feBlend mode="normal" in="SourceGraphic" in2="effect1_dropShadow_40_113" result="shape"/>
</filter>
<filter id="filter1_d_40_113" x="2848.53" y="3213.88" width="1521.98" height="615.416" filterUnits="userSpaceOnUse" color-interpolation-filters="sRGB">
<feFlood flood-opacity="0" result="BackgroundImageFix"/>
<feColorMatrix in="SourceAlpha" type="matrix" values="0 0 0 0 0 0 0 0 0 0 0 0 0 0 0 0 0 0 127 0" result="hardAlpha"/>
<feOffset dx="-4" dy="4"/>
<feGaussianBlur stdDeviation="2"/>
<feComposite in2="hardAlpha" operator="out"/>
<feColorMatrix type="matrix" values="0 0 0 0 0 0 0 0 0 0 0 0 0 0 0 0 0 0 0.25 0"/>
<feBlend mode="normal" in2="BackgroundImageFix" result="effect1_dropShadow_40_113"/>
<feBlend mode="normal" in="SourceGraphic" in2="effect1_dropShadow_40_113" result="shape"/>
</filter>
<linearGradient id="paint0_linear_40_113" x1="1839.37" y1="1231.14" x2="2168.28" y2="1736.51" gradientUnits="userSpaceOnUse">
<stop stop-color="#F48484"/>
<stop offset="1" stop-color="white"/>
</linearGradient>
<linearGradient id="paint1_linear_40_113" x1="1897" y1="3318.5" x2="2136.5" y2="4800" gradientUnits="userSpaceOnUse">
<stop stop-color="#C7AAE8"/>
<stop offset="1" stop-color="white"/>
</linearGradient>
<linearGradient id="paint2_linear_40_113" x1="2346.08" y1="3747.15" x2="2592.9" y2="4878.23" gradientUnits="userSpaceOnUse">
<stop stop-color="#FEFAAC"/>
<stop offset="1" stop-color="white"/>
</linearGradient>
<clipPath id="clip0_40_113">
<rect width="5382" height="5382" fill="white"/>
</clipPath>
</defs>
</svg>
